<svg width="55" height="63" viewBox="0 0 55 63" fill="none" xmlns="http://www.w3.org/2000/svg">
<path d="M4.69581 15.0395H50.0021L54.6979 62.564H0L4.69581 15.0395Z" fill="#31C28D"/>
<rect x="17.2612" y="2.71009" width="20.6238" height="42.5927" rx="10.3119" stroke="#2FC18C" stroke-width="4.03509"/>
<path d="M31.2358 37.6568L31.2358 47.172C31.2358 48.6052 30.074 49.7671 28.6408 49.7671C27.2076 49.7671 26.0457 48.6052 26.0457 47.172L26.0457 37.6568" stroke="white" stroke-width="2.69006" stroke-linecap="round" stroke-linejoin="round"/>
<path d="M10.4753 38.5218L10.4753 32.8992C10.4753 27.4052 14.9291 22.9515 20.4231 22.9515L21.2881 22.9515C26.7821 22.9515 31.2358 27.4052 31.2358 32.8992L31.2358 38.5218" stroke="white" stroke-width="2.69006" stroke-linecap="round" stroke-linejoin="round"/>
<path d="M26.0459 35.0618L26.0459 36.7003L26.0459 39.3869C26.0459 40.8201 24.884 41.9819 23.4508 41.9819C22.0176 41.9819 20.8558 40.8201 20.8558 39.3869L20.8558 36.6345L20.8558 35.0618" stroke="white" stroke-width="2.69006" stroke-linecap="round" stroke-linejoin="round"/>
<path d="M20.8555 35.0618L20.8555 36.7003L20.8555 39.3869C20.8555 40.8201 19.6936 41.9819 18.2604 41.9819C16.8272 41.9819 15.6653 40.8201 15.6653 39.3869L15.6653 36.6345L15.6653 35.0618" stroke="white" stroke-width="2.69006" stroke-linecap="round" stroke-linejoin="round"/>
<path d="M15.6655 35.0618L15.6655 36.7003L15.6655 39.3869C15.6655 40.8201 14.5037 41.9819 13.0705 41.9819C11.6373 41.9819 10.4754 40.8201 10.4754 39.3869L10.4754 36.6345L10.4754 35.0618" stroke="white" stroke-width="2.69006" stroke-linecap="round" stroke-linejoin="round"/>
<path d="M19.9906 47.172C19.9906 48.0812 20.1309 48.9577 20.391 49.7809C20.6819 50.7017 21.1227 51.5558 21.6847 52.3148C23.2606 54.4427 25.7896 55.8222 28.6408 55.8222C31.492 55.8222 34.0211 54.4427 35.5969 52.3148C36.1589 51.5558 36.5997 50.7017 36.8906 49.7809C37.1507 48.9577 37.291 48.0812 37.291 47.172" stroke="white" stroke-width="2.69006" stroke-linecap="round"/>
<circle cx="39.9026" cy="36.5601" r="4.48344" fill="white"/>
</svg>
